<svg width="150" height="200" xmlns="http://www.w3.org/2000/svg">
 <metadata id="metadata8">image/svg+xmlimage/svg+xml</metadata>

 <g id="g27" transform="scale(0.5 0.5) translate(0 0)">
  <title>I Love You</title>
  <g stroke="null" id="svg_1">
   <path stroke="null" fill="#704934" fill-rule="evenodd" d="m125.03042,260.119945c8.370418,5.101497 20.98053,7.24611 21.178645,7.592812c3.86327,31.599572 3.86327,56.066948 4.011858,56.908944c-15.304494,-17.434248 -26.597131,-23.427269 -26.299956,-23.773972c-2.575512,-11.738398 -3.21939,-23.625384 -3.268921,-24.071146l4.011858,3.630482c0.11887,0.039625 0.515104,1.342241 0.67855,2.238717c0.089152,0.153539 3.511612,16.101914 21.881957,33.981921c-15.938464,-18.954791 -19.242058,-36.07205 -19.162809,-35.987849l-3.031181,-20.519909z" id="path14"/>
   <path stroke="null" fill="#171008" fill-rule="evenodd" d="m42.173178,99.98244c0.465572,-0.777606 11.337213,-39.449934 13.437246,-83.471402c1.277851,0.11887 42.268142,23.610526 120.464694,22.040452c0.193164,0.034669 -11.218343,30.792245 -1.827624,109.132433c0.287268,0.693409 -13.511543,2.60523 -19.484753,3.1451c0.039625,-0.123825 -8.563581,17.894865 -6.310006,50.752474c-0.009907,0.104011 11.86222,8.236689 18.672471,11.158908c-0.693405,0.004952 11.990997,-3.259018 24.804179,-4.749843c0.292219,0.163446 0.757795,28.786316 6.250571,55.492409c-0.208022,0.039625 1.703803,-0.099056 2.555702,-0.143632c-0.247647,-0.351658 0.802372,1.758282 1.203557,2.639899c0.980676,-0.292219 10.366443,-6.374396 23.456987,-11.30254c0.158491,1.035156 -2.085178,15.096472 -0.841996,29.23703c0.287268,-0.123822 13.610599,1.61465 36.488091,-9.167838c-0.406137,0.450717 -19.658099,19.138047 -36.94376,42.441491c0.341751,-0.079245 -17.409479,-1.812765 -36.909091,-1.248134c-0.663688,0.346706 -25.755135,27.87003 -40.866465,39.743149c-0.232784,-1.192662 -9.455105,-13.755226 -17.280706,-18.5645c-1.267944,0.25755 -13.912725,5.809764 -21.782898,11.409029c0.024762,-0.458641 -12.119774,-21.334662 -10.450644,-78.699275c-0.648829,-0.827134 7.360028,2.877642 17.216319,4.91824c-2.208999,-16.517955 -16.993438,-87.463446 -62.718709,-132.18823c0.193164,-0.782561 1.832579,-9.806763 6.151515,-22.139511c-0.584442,-1.812765 -9.544258,-13.670034 -15.28468,-20.435708z" id="path16"/>
   <g stroke="null" transform="matrix(0.4952910617347479,0,0,-0.4952910617347479,65.4510991660427,416.6156752743682) " id="g18">
    <path stroke="null" fill="#ffffff" fill-rule="evenodd" d="m161.501538,262.117199c0.58,0.34 16,61.19 49.58,121.17c17.41,-10.64 46.59,-52.91 48.22,-54.16l2.92,-22.47l-86.76,-70.16l4.96,2.33l84.29,63.25l2.08,0l-0.41,-5l-64.51,-62.01l69.5,61.18l34.55,17.06c-1.84,-1.8 -54.91,-107.67 -134.6,-171.88c1.23,1.21 -2.79,61.7 -9.82,120.69z" id="path26"/>
   </g>
   <path stroke="null" fill="#784934" fill-rule="evenodd" d="m61.81147,26.342563c0.435855,0.510152 10.004878,28.434662 17.880007,64.377935c-3.556192,2.709241 3.86327,44.977379 7.934563,45.5222c13.452104,0.728078 18.528835,18.548649 80.509559,8.6775c-0.13868,-0.059435 -6.14656,-49.073437 0,-100.128041c-1.525494,-0.064387 -39.375637,5.398671 -106.324132,-18.44959l0.000004,-0.000004z" id="path28"/>
   <path stroke="null" fill="#784934" fill-rule="evenodd" d="m195.218116,302.521815c15.250011,-20.237593 24.511956,-37.369712 24.546626,-37.746132c-1.362052,11.158904 -0.282316,20.475329 -0.416045,20.703166c-0.242691,-0.168401 -4.987582,1.797907 -19.261869,11.411506c16.478334,-8.806277 18.722003,-8.157444 19.588761,-8.727031c-0.569583,0.316989 9.687893,0.35661 16.993434,-2.085174c0.203071,0.099059 -17.142022,8.023715 -41.450908,16.443665z" id="path30"/>
   <path stroke="null" fill="#58130c" fill-rule="evenodd" d="m105.856203,277.479008c1.941542,0.416045 8.665208,2.629999 9.115921,2.748865c0.571835,4.873664 0.912999,7.170661 2.123086,12.03937c-0.65874,-0.534914 -6.286094,-6.244464 -11.239008,-14.788235z" id="path32"/>
   <path stroke="null" fill="#000000" fill-rule="evenodd" d="m171.865141,238.257798l-2.654758,-1.698847c-0.282316,-0.089152 -1.99107,2.570561 -2.986605,4.95291c0.445762,0.990583 4.482382,5.562118 8.048477,8.984581c1.604743,-3.917754 3.313497,-10.460547 3.318453,-11.277778c-1.480922,-2.506174 -4.373423,-4.378374 -4.294174,-4.363516l-1.431394,3.40265z" id="path34"/>
   <path stroke="null" fill="#753728" fill-rule="evenodd" d="m173.603612,240.328114l-2.50617,-1.381862c-0.153543,0.094108 -0.950959,0.931148 -1.768189,2.629996c1.629505,1.926684 3.605717,3.511616 5.408579,5.269898c0.643877,-2.025739 0.990583,-4.006906 1.485873,-6.007879c-0.113918,-0.312033 -1.045067,-1.570074 -2.025739,-1.887059l-0.594353,1.376907z" id="path36"/>
   <path stroke="null" fill="#784934" fill-rule="evenodd" d="m111.404963,325.622188l4.006902,5.943493l2.66962,-2.525984c3.511612,2.22881 8.806277,6.240668 8.306031,6.240668c-5.884058,1.683988 -16.077148,6.339727 -16.31984,6.835017c-1.03516,-11.441224 1.040111,-16.493193 1.337286,-16.493193z" id="path38"/>
   <path stroke="null" fill="#58130c" fill-rule="evenodd" d="m100.137092,278.272364c5.245132,9.905819 11.530376,14.90826 11.72354,15.00732c0.049528,17.03801 2.327866,27.241008 2.377393,27.488651c-0.143632,-0.148587 -4.601252,-1.931635 -9.796856,-17.830475c2.22881,14.90826 4.601255,19.712582 4.155493,19.76211c-1.188699,3.86327 -1.040111,15.750256 -1.337286,15.601669c-7.865225,-31.153806 -7.56805,-60.078806 -7.122288,-60.029274l0.000004,0z" id="path40"/>
   <path stroke="null" fill="#784934" fill-rule="evenodd" d="m119.086928,279.560119c8.370418,5.101501 21.770888,7.088039 23.54972,7.434741c3.86327,31.599572 1.492196,56.225019 1.640783,57.067015c-15.304494,-17.434245 -26.597131,-23.427269 -26.299956,-23.773972c-2.575512,-11.738398 -3.21939,-23.625384 -3.268921,-24.071146l4.011858,3.630486c0.11887,0.039621 0.515104,1.342238 0.67855,2.238713c0.089152,0.153543 3.511612,16.101914 21.881957,33.981921c-15.938464,-18.954787 -19.242058,-36.072046 -19.162809,-35.987849l-3.031181,-20.519909z" id="path42"/>
   <path stroke="null" fill="#000000" fill-opacity="0.5098" fill-rule="evenodd" d="m28.577438,379.968002c0,-1.306083 35.383593,-2.365016 79.038548,-2.365016c43.65,0 79.033593,1.058934 79.033593,2.365016c0,1.306083 -35.383593,2.365012 -79.033593,2.365012c-43.654955,0 -79.038548,-1.05893 -79.038548,-2.365012z" id="path44"/>
   <path stroke="null" fill="#58130c" fill-rule="evenodd" d="m59.42518,30.069315c7.544974,19.402752 13.38209,40.51337 20.073133,60.770053c0.341751,2.857828 5.988069,36.814983 6.696333,39.127994c1.208513,5.235225 20.257404,14.417922 43.57571,17.71656c-36.037377,-1.000487 -50.9605,-15.200483 -51.247767,-16.205925c-1.168888,-2.773628 -1.951446,-6.007879 -2.679523,-8.122771c-1.079736,4.051479 -2.833066,11.872127 -0.217929,19.469891c-0.039625,-3.580954 0.435855,-16.304981 7.889987,-2.511126c11.872127,37.820425 25.799711,60.871271 38.632704,90.88591c5.027203,-2.887546 12.312934,-5.666129 12.263406,-5.502683c2.937074,11.852313 1.817717,13.249034 2.912312,21.490678c-0.217929,0.371468 2.790069,14.652084 3.887928,27.01033c-1.773037,0.039625 -15.304386,-1.200712 -24.016559,-9.511699c0.227836,0.18326 -10.614086,-38.786243 -20.089006,-63.268478c4.437809,4.417995 14.913215,22.416872 14.838922,21.703652c-4.888523,-8.216879 -19.960229,-40.430607 -55.1358,-81.609105c-0.049532,-0.074294 0.346703,-11.144049 8.315935,-35.002221c-0.183256,-0.396234 -4.076244,6.790441 -5.596787,10.103938c0.490338,0.242691 -6.156471,-10.212901 -11.9068,-17.107352c0.673598,-0.262506 7.717652,-25.331976 11.803803,-69.437645z" id="path46"/>
   <path stroke="null" fill="#784934" fill-rule="evenodd" d="m131.27604,226.945351c1.520542,-0.703312 25.071633,-9.945444 57.973818,-15.571951c-0.024762,17.919631 2.446739,31.406405 2.392256,32.550527c-11.634387,-13.194554 -22.565459,-21.73337 -22.738812,-21.659076c-12.199019,18.637802 -25.482726,49.36566 -25.487677,49.781705l-6.939028,-27.523324c-1.73352,-5.978166 -3.467036,-11.599718 -5.200556,-17.57788z" id="path48"/>
  </g>
 </g>
</svg>
