<svg width="150" height="200" xmlns="http://www.w3.org/2000/svg">
 <metadata id="metadata8">image/svg+xmlimage/svg+xml</metadata>

 <g id="g27" transform="scale(0.5 0.5) translate(0 0)">
  <title>I Love You</title>
  <g stroke="null" id="svg_1">
   <path stroke="null" fill="#704934" fill-rule="evenodd" d="m125.03,260.11c8.37,5.10 20.98,7.24 21.17,7.59c3.86,31.59 3.86,56.06 4.01,56.90c-15.30,-17.43 -26.59,-23.42 -26.29,-23.77c-2.57,-11.73 -3.21,-23.62 -3.26,-24.07l4.01,3.63c0.11,0.03 0.51,1.34 0.67,2.23c0.08,0.15 3.51,16.10 21.88,33.98c-15.93,-18.95 -19.24,-36.07 -19.16,-35.98l-3.03,-20.51z" id="path14"/>
   <path stroke="null" fill="#171008" fill-rule="evenodd" d="m42.17,99.98c0.46,-0.77 11.33,-39.44 13.43,-83.47c1.27,0.11 42.26,23.61 120.46,22.04c0.19,0.03 -11.21,30.79 -1.82,109.13c0.28,0.69 -13.51,2.60 -19.48,3.14c0.03,-0.12 -8.56,17.89 -6.31,50.75c-0.00,0.10 11.86,8.23 18.67,11.15c-0.69,0.00 11.99,-3.25 24.80,-4.74c0.29,0.16 0.75,28.78 6.25,55.49c-0.20,0.03 1.70,-0.09 2.55,-0.14c-0.24,-0.35 0.80,1.75 1.20,2.63c0.98,-0.29 10.36,-6.37 23.45,-11.30c0.15,1.03 -2.08,15.09 -0.84,29.23c0.28,-0.12 13.61,1.61 36.48,-9.16c-0.40,0.45 -19.65,19.13 -36.94,42.44c0.34,-0.07 -17.40,-1.81 -36.90,-1.24c-0.66,0.34 -25.75,27.87 -40.86,39.74c-0.23,-1.19 -9.45,-13.75 -17.28,-18.56c-1.26,0.25 -13.91,5.80 -21.78,11.40c0.02,-0.45 -12.11,-21.33 -10.45,-78.69c-0.64,-0.82 7.36,2.87 17.21,4.91c-2.20,-16.51 -16.99,-87.46 -62.71,-132.18c0.19,-0.78 1.83,-9.80 6.15,-22.13c-0.58,-1.81 -9.54,-13.67 -15.28,-20.43z" id="path16"/>
   <g stroke="null" transform="matrix(0.49,0,0,-0.49,65.45,416.61) " id="g18">
    <path stroke="null" fill="#ffffff" fill-rule="evenodd" d="m161.50,262.11c0.58,0.34 16,61.19 49.58,121.17c17.41,-10.64 46.59,-52.91 48.22,-54.16l2.92,-22.47l-86.76,-70.16l4.96,2.33l84.29,63.25l2.08,0l-0.41,-5l-64.51,-62.01l69.5,61.18l34.55,17.06c-1.84,-1.8 -54.91,-107.67 -134.6,-171.88c1.23,1.21 -2.79,61.7 -9.82,120.69z" id="path26"/>
   </g>
   <path stroke="null" fill="#784934" fill-rule="evenodd" d="m61.81,26.34c0.43,0.51 10.00,28.43 17.88,64.37c-3.55,2.70 3.86,44.97 7.93,45.52c13.45,0.72 18.52,18.54 80.50,8.67c-0.13,-0.05 -6.14,-49.07 0,-100.12c-1.52,-0.06 -39.37,5.39 -106.32,-18.44l0.00,-0.00z" id="path28"/>
   <path stroke="null" fill="#784934" fill-rule="evenodd" d="m195.21,302.52c15.25,-20.23 24.51,-37.36 24.54,-37.74c-1.36,11.15 -0.28,20.47 -0.41,20.70c-0.24,-0.16 -4.98,1.79 -19.26,11.41c16.47,-8.80 18.72,-8.15 19.58,-8.72c-0.56,0.31 9.68,0.35 16.99,-2.08c0.20,0.09 -17.14,8.02 -41.45,16.44z" id="path30"/>
   <path stroke="null" fill="#58130c" fill-rule="evenodd" d="m105.85,277.47c1.94,0.41 8.66,2.62 9.11,2.74c0.57,4.87 0.91,7.17 2.12,12.03c-0.65,-0.53 -6.28,-6.24 -11.23,-14.78z" id="path32"/>
   <path stroke="null" fill="#000000" fill-rule="evenodd" d="m171.86,238.25l-2.65,-1.69c-0.28,-0.08 -1.99,2.57 -2.98,4.95c0.44,0.99 4.48,5.56 8.04,8.98c1.60,-3.91 3.31,-10.46 3.31,-11.27c-1.48,-2.50 -4.37,-4.37 -4.29,-4.36l-1.43,3.40z" id="path34"/>
   <path stroke="null" fill="#753728" fill-rule="evenodd" d="m173.60,240.32l-2.50,-1.38c-0.15,0.09 -0.95,0.93 -1.76,2.62c1.62,1.92 3.60,3.51 5.40,5.26c0.64,-2.02 0.99,-4.00 1.48,-6.00c-0.11,-0.31 -1.04,-1.57 -2.02,-1.88l-0.59,1.37z" id="path36"/>
   <path stroke="null" fill="#784934" fill-rule="evenodd" d="m111.40,325.62l4.00,5.94l2.66,-2.52c3.51,2.22 8.80,6.24 8.30,6.24c-5.88,1.68 -16.07,6.33 -16.31,6.83c-1.03,-11.44 1.04,-16.49 1.33,-16.49z" id="path38"/>
   <path stroke="null" fill="#58130c" fill-rule="evenodd" d="m100.13,278.27c5.24,9.90 11.53,14.90 11.72,15.00c0.04,17.03 2.32,27.24 2.37,27.48c-0.14,-0.14 -4.60,-1.93 -9.79,-17.83c2.22,14.90 4.60,19.71 4.15,19.76c-1.18,3.86 -1.04,15.75 -1.33,15.60c-7.86,-31.15 -7.56,-60.07 -7.12,-60.02l0.00,0z" id="path40"/>
   <path stroke="null" fill="#784934" fill-rule="evenodd" d="m119.08,279.56c8.37,5.10 21.77,7.08 23.54,7.43c3.86,31.59 1.49,56.22 1.64,57.06c-15.30,-17.43 -26.59,-23.42 -26.29,-23.77c-2.57,-11.73 -3.21,-23.62 -3.26,-24.07l4.01,3.63c0.11,0.03 0.51,1.34 0.67,2.23c0.08,0.15 3.51,16.10 21.88,33.98c-15.93,-18.95 -19.24,-36.07 -19.16,-35.98l-3.03,-20.51z" id="path42"/>
   <path stroke="null" fill="#000000" fill-opacity="0.50" fill-rule="evenodd" d="m28.57,379.96c0,-1.30 35.38,-2.36 79.03,-2.36c43.65,0 79.03,1.05 79.03,2.36c0,1.30 -35.38,2.36 -79.03,2.36c-43.65,0 -79.03,-1.05 -79.03,-2.36z" id="path44"/>
   <path stroke="null" fill="#58130c" fill-rule="evenodd" d="m59.42,30.06c7.54,19.40 13.38,40.51 20.07,60.77c0.34,2.85 5.98,36.81 6.69,39.12c1.20,5.23 20.25,14.41 43.57,17.71c-36.03,-1.00 -50.96,-15.20 -51.24,-16.20c-1.16,-2.77 -1.95,-6.00 -2.67,-8.12c-1.07,4.05 -2.83,11.87 -0.21,19.46c-0.03,-3.58 0.43,-16.30 7.88,-2.51c11.87,37.82 25.79,60.87 38.63,90.88c5.02,-2.88 12.31,-5.66 12.26,-5.50c2.93,11.85 1.81,13.24 2.91,21.49c-0.21,0.37 2.79,14.65 3.88,27.01c-1.77,0.03 -15.30,-1.20 -24.01,-9.51c0.22,0.18 -10.61,-38.78 -20.08,-63.26c4.43,4.41 14.91,22.41 14.83,21.70c-4.88,-8.21 -19.96,-40.43 -55.13,-81.60c-0.04,-0.07 0.34,-11.14 8.31,-35.00c-0.18,-0.39 -4.07,6.79 -5.59,10.10c0.49,0.24 -6.15,-10.21 -11.90,-17.10c0.67,-0.26 7.71,-25.33 11.80,-69.43z" id="path46"/>
   <path stroke="null" fill="#784934" fill-rule="evenodd" d="m131.27,226.94c1.52,-0.70 25.07,-9.94 57.97,-15.57c-0.02,17.91 2.44,31.40 2.39,32.55c-11.63,-13.19 -22.56,-21.73 -22.73,-21.65c-12.19,18.63 -25.48,49.36 -25.48,49.78l-6.93,-27.52c-1.73,-5.97 -3.46,-11.59 -5.20,-17.57z" id="path48"/>
  </g>
 </g>
</svg>
